<mxfile host="app.diagrams.net" modified="2023-04-26T23:12:22.324Z" agent="Mozilla/5.0 (Windows NT 10.0; Win64; x64) AppleWebKit/537.36 (KHTML, like Gecko) Chrome/112.0.0.0 Safari/537.36 Edg/112.0.1722.48" etag="tctRHWdzVR2aJQphC569" version="21.2.3" type="device">
  <diagram id="R2lEEEUBdFMjLlhIrx00" name="Page-1">
    <mxGraphModel dx="979" dy="581" grid="1" gridSize="10" guides="1" tooltips="1" connect="1" arrows="1" fold="1" page="1" pageScale="1" pageWidth="850" pageHeight="1100" math="0" shadow="0" extFonts="Permanent Marker^https://fonts.googleapis.com/css?family=Permanent+Marker">
      <root>
        <mxCell id="0" />
        <mxCell id="1" parent="0" />
        <mxCell id="SCWZJCpaNGBk60qsSxi8-1" value="Cliente" style="rounded=0;whiteSpace=wrap;html=1;" vertex="1" parent="1">
          <mxGeometry x="80" y="240" width="120" height="60" as="geometry" />
        </mxCell>
        <mxCell id="SCWZJCpaNGBk60qsSxi8-2" value="Proveedores" style="rounded=0;whiteSpace=wrap;html=1;" vertex="1" parent="1">
          <mxGeometry x="410" y="590" width="120" height="60" as="geometry" />
        </mxCell>
        <mxCell id="SCWZJCpaNGBk60qsSxi8-3" value="Productos" style="rounded=0;whiteSpace=wrap;html=1;" vertex="1" parent="1">
          <mxGeometry x="410" y="240" width="120" height="60" as="geometry" />
        </mxCell>
        <mxCell id="SCWZJCpaNGBk60qsSxi8-4" value="Nombre" style="ellipse;whiteSpace=wrap;html=1;" vertex="1" parent="1">
          <mxGeometry x="90" y="170" width="60" height="40" as="geometry" />
        </mxCell>
        <mxCell id="SCWZJCpaNGBk60qsSxi8-5" value="Apellidos" style="ellipse;whiteSpace=wrap;html=1;" vertex="1" parent="1">
          <mxGeometry x="160" y="170" width="60" height="40" as="geometry" />
        </mxCell>
        <mxCell id="SCWZJCpaNGBk60qsSxi8-6" value="&lt;u&gt;DNI&lt;/u&gt;" style="ellipse;whiteSpace=wrap;html=1;" vertex="1" parent="1">
          <mxGeometry x="10" y="170" width="60" height="40" as="geometry" />
        </mxCell>
        <mxCell id="SCWZJCpaNGBk60qsSxi8-7" value="Direccion" style="ellipse;whiteSpace=wrap;html=1;" vertex="1" parent="1">
          <mxGeometry x="30" y="340" width="60" height="40" as="geometry" />
        </mxCell>
        <mxCell id="SCWZJCpaNGBk60qsSxi8-8" value="Fecha de Nacimiento" style="ellipse;whiteSpace=wrap;html=1;" vertex="1" parent="1">
          <mxGeometry x="130" y="340" width="80" height="40" as="geometry" />
        </mxCell>
        <mxCell id="SCWZJCpaNGBk60qsSxi8-9" value="&lt;u&gt;Codigo&lt;/u&gt;" style="ellipse;whiteSpace=wrap;html=1;" vertex="1" parent="1">
          <mxGeometry x="440" y="160" width="60" height="40" as="geometry" />
        </mxCell>
        <mxCell id="SCWZJCpaNGBk60qsSxi8-10" value="Nombre" style="ellipse;whiteSpace=wrap;html=1;" vertex="1" parent="1">
          <mxGeometry x="570" y="260" width="60" height="40" as="geometry" />
        </mxCell>
        <mxCell id="SCWZJCpaNGBk60qsSxi8-11" value="Precio Unitario" style="ellipse;whiteSpace=wrap;html=1;" vertex="1" parent="1">
          <mxGeometry x="580" y="210" width="60" height="40" as="geometry" />
        </mxCell>
        <mxCell id="SCWZJCpaNGBk60qsSxi8-12" value="&lt;u&gt;CUIL&lt;/u&gt;" style="ellipse;whiteSpace=wrap;html=1;" vertex="1" parent="1">
          <mxGeometry x="320" y="600" width="60" height="40" as="geometry" />
        </mxCell>
        <mxCell id="SCWZJCpaNGBk60qsSxi8-13" value="Nombre" style="ellipse;whiteSpace=wrap;html=1;" vertex="1" parent="1">
          <mxGeometry x="610" y="550" width="60" height="40" as="geometry" />
        </mxCell>
        <mxCell id="SCWZJCpaNGBk60qsSxi8-14" value="Direccion" style="ellipse;whiteSpace=wrap;html=1;" vertex="1" parent="1">
          <mxGeometry x="610" y="600" width="60" height="40" as="geometry" />
        </mxCell>
        <mxCell id="SCWZJCpaNGBk60qsSxi8-17" value="" style="endArrow=none;html=1;rounded=0;" edge="1" parent="1" source="SCWZJCpaNGBk60qsSxi8-1" target="SCWZJCpaNGBk60qsSxi8-4">
          <mxGeometry width="50" height="50" relative="1" as="geometry">
            <mxPoint x="400" y="310" as="sourcePoint" />
            <mxPoint x="450" y="260" as="targetPoint" />
          </mxGeometry>
        </mxCell>
        <mxCell id="SCWZJCpaNGBk60qsSxi8-18" value="" style="endArrow=classic;html=1;rounded=0;" edge="1" parent="1" source="SCWZJCpaNGBk60qsSxi8-1" target="SCWZJCpaNGBk60qsSxi8-6">
          <mxGeometry width="50" height="50" relative="1" as="geometry">
            <mxPoint x="400" y="310" as="sourcePoint" />
            <mxPoint x="450" y="260" as="targetPoint" />
          </mxGeometry>
        </mxCell>
        <mxCell id="SCWZJCpaNGBk60qsSxi8-19" value="" style="endArrow=none;html=1;rounded=0;" edge="1" parent="1" source="SCWZJCpaNGBk60qsSxi8-7" target="SCWZJCpaNGBk60qsSxi8-1">
          <mxGeometry width="50" height="50" relative="1" as="geometry">
            <mxPoint x="400" y="310" as="sourcePoint" />
            <mxPoint x="450" y="260" as="targetPoint" />
          </mxGeometry>
        </mxCell>
        <mxCell id="SCWZJCpaNGBk60qsSxi8-20" value="" style="endArrow=none;html=1;rounded=0;" edge="1" parent="1" source="SCWZJCpaNGBk60qsSxi8-1" target="SCWZJCpaNGBk60qsSxi8-8">
          <mxGeometry width="50" height="50" relative="1" as="geometry">
            <mxPoint x="400" y="310" as="sourcePoint" />
            <mxPoint x="450" y="260" as="targetPoint" />
          </mxGeometry>
        </mxCell>
        <mxCell id="SCWZJCpaNGBk60qsSxi8-21" value="Compra" style="rhombus;whiteSpace=wrap;html=1;" vertex="1" parent="1">
          <mxGeometry x="270" y="230" width="80" height="80" as="geometry" />
        </mxCell>
        <mxCell id="SCWZJCpaNGBk60qsSxi8-22" value="" style="endArrow=none;html=1;rounded=0;" edge="1" parent="1" source="SCWZJCpaNGBk60qsSxi8-3" target="SCWZJCpaNGBk60qsSxi8-9">
          <mxGeometry width="50" height="50" relative="1" as="geometry">
            <mxPoint x="400" y="310" as="sourcePoint" />
            <mxPoint x="450" y="260" as="targetPoint" />
          </mxGeometry>
        </mxCell>
        <mxCell id="SCWZJCpaNGBk60qsSxi8-23" value="" style="endArrow=none;html=1;rounded=0;" edge="1" parent="1" source="SCWZJCpaNGBk60qsSxi8-10" target="SCWZJCpaNGBk60qsSxi8-3">
          <mxGeometry width="50" height="50" relative="1" as="geometry">
            <mxPoint x="400" y="310" as="sourcePoint" />
            <mxPoint x="450" y="260" as="targetPoint" />
          </mxGeometry>
        </mxCell>
        <mxCell id="SCWZJCpaNGBk60qsSxi8-24" value="" style="endArrow=none;html=1;rounded=0;" edge="1" parent="1" source="SCWZJCpaNGBk60qsSxi8-11" target="SCWZJCpaNGBk60qsSxi8-3">
          <mxGeometry width="50" height="50" relative="1" as="geometry">
            <mxPoint x="410" y="310" as="sourcePoint" />
            <mxPoint x="450" y="260" as="targetPoint" />
          </mxGeometry>
        </mxCell>
        <mxCell id="SCWZJCpaNGBk60qsSxi8-25" value="" style="endArrow=none;html=1;rounded=0;" edge="1" parent="1" source="SCWZJCpaNGBk60qsSxi8-14" target="SCWZJCpaNGBk60qsSxi8-2">
          <mxGeometry width="50" height="50" relative="1" as="geometry">
            <mxPoint x="400" y="310" as="sourcePoint" />
            <mxPoint x="450" y="260" as="targetPoint" />
          </mxGeometry>
        </mxCell>
        <mxCell id="SCWZJCpaNGBk60qsSxi8-26" value="" style="endArrow=none;html=1;rounded=0;" edge="1" parent="1" source="SCWZJCpaNGBk60qsSxi8-13" target="SCWZJCpaNGBk60qsSxi8-2">
          <mxGeometry width="50" height="50" relative="1" as="geometry">
            <mxPoint x="400" y="310" as="sourcePoint" />
            <mxPoint x="450" y="260" as="targetPoint" />
          </mxGeometry>
        </mxCell>
        <mxCell id="SCWZJCpaNGBk60qsSxi8-27" value="" style="endArrow=none;html=1;rounded=0;" edge="1" parent="1" source="SCWZJCpaNGBk60qsSxi8-2" target="SCWZJCpaNGBk60qsSxi8-12">
          <mxGeometry width="50" height="50" relative="1" as="geometry">
            <mxPoint x="400" y="310" as="sourcePoint" />
            <mxPoint x="450" y="260" as="targetPoint" />
          </mxGeometry>
        </mxCell>
        <mxCell id="SCWZJCpaNGBk60qsSxi8-28" value="" style="endArrow=none;html=1;rounded=0;" edge="1" parent="1" source="SCWZJCpaNGBk60qsSxi8-21" target="SCWZJCpaNGBk60qsSxi8-1">
          <mxGeometry width="50" height="50" relative="1" as="geometry">
            <mxPoint x="390" y="310" as="sourcePoint" />
            <mxPoint x="440" y="260" as="targetPoint" />
          </mxGeometry>
        </mxCell>
        <mxCell id="SCWZJCpaNGBk60qsSxi8-29" value="" style="endArrow=none;html=1;rounded=0;exitX=1;exitY=0.5;exitDx=0;exitDy=0;" edge="1" parent="1" source="SCWZJCpaNGBk60qsSxi8-21" target="SCWZJCpaNGBk60qsSxi8-3">
          <mxGeometry width="50" height="50" relative="1" as="geometry">
            <mxPoint x="390" y="310" as="sourcePoint" />
            <mxPoint x="440" y="260" as="targetPoint" />
          </mxGeometry>
        </mxCell>
        <mxCell id="SCWZJCpaNGBk60qsSxi8-30" value="" style="endArrow=none;html=1;rounded=0;exitX=0.5;exitY=0;exitDx=0;exitDy=0;" edge="1" parent="1" source="SCWZJCpaNGBk60qsSxi8-31" target="SCWZJCpaNGBk60qsSxi8-3">
          <mxGeometry width="50" height="50" relative="1" as="geometry">
            <mxPoint x="390" y="310" as="sourcePoint" />
            <mxPoint x="440" y="260" as="targetPoint" />
          </mxGeometry>
        </mxCell>
        <mxCell id="SCWZJCpaNGBk60qsSxi8-31" value="Suministro por proveedor" style="rhombus;whiteSpace=wrap;html=1;" vertex="1" parent="1">
          <mxGeometry x="430" y="390" width="80" height="80" as="geometry" />
        </mxCell>
        <mxCell id="SCWZJCpaNGBk60qsSxi8-33" value="" style="endArrow=none;html=1;rounded=0;" edge="1" parent="1" source="SCWZJCpaNGBk60qsSxi8-31" target="SCWZJCpaNGBk60qsSxi8-2">
          <mxGeometry width="50" height="50" relative="1" as="geometry">
            <mxPoint x="390" y="410" as="sourcePoint" />
            <mxPoint x="440" y="360" as="targetPoint" />
          </mxGeometry>
        </mxCell>
        <mxCell id="SCWZJCpaNGBk60qsSxi8-34" value="1:1" style="text;html=1;align=center;verticalAlign=middle;resizable=0;points=[];autosize=1;strokeColor=none;fillColor=none;" vertex="1" parent="1">
          <mxGeometry x="470" y="520" width="40" height="30" as="geometry" />
        </mxCell>
        <mxCell id="SCWZJCpaNGBk60qsSxi8-35" value="1:N" style="text;html=1;align=center;verticalAlign=middle;resizable=0;points=[];autosize=1;strokeColor=none;fillColor=none;" vertex="1" parent="1">
          <mxGeometry x="470" y="338" width="40" height="30" as="geometry" />
        </mxCell>
        <mxCell id="SCWZJCpaNGBk60qsSxi8-36" value="1:N" style="text;html=1;align=center;verticalAlign=middle;resizable=0;points=[];autosize=1;strokeColor=none;fillColor=none;" vertex="1" parent="1">
          <mxGeometry x="220" y="240" width="40" height="30" as="geometry" />
        </mxCell>
        <mxCell id="SCWZJCpaNGBk60qsSxi8-37" value="1:N" style="text;html=1;align=center;verticalAlign=middle;resizable=0;points=[];autosize=1;strokeColor=none;fillColor=none;" vertex="1" parent="1">
          <mxGeometry x="360" y="240" width="40" height="30" as="geometry" />
        </mxCell>
        <mxCell id="SCWZJCpaNGBk60qsSxi8-38" value="" style="endArrow=none;html=1;rounded=0;" edge="1" parent="1" source="SCWZJCpaNGBk60qsSxi8-1" target="SCWZJCpaNGBk60qsSxi8-5">
          <mxGeometry width="50" height="50" relative="1" as="geometry">
            <mxPoint x="390" y="400" as="sourcePoint" />
            <mxPoint x="440" y="350" as="targetPoint" />
          </mxGeometry>
        </mxCell>
        <mxCell id="SCWZJCpaNGBk60qsSxi8-39" value="N:N" style="text;html=1;align=center;verticalAlign=middle;resizable=0;points=[];autosize=1;strokeColor=none;fillColor=none;" vertex="1" parent="1">
          <mxGeometry x="290" y="198" width="40" height="30" as="geometry" />
        </mxCell>
        <mxCell id="SCWZJCpaNGBk60qsSxi8-40" value="1:N" style="text;html=1;align=center;verticalAlign=middle;resizable=0;points=[];autosize=1;strokeColor=none;fillColor=none;" vertex="1" parent="1">
          <mxGeometry x="520" y="418" width="40" height="30" as="geometry" />
        </mxCell>
      </root>
    </mxGraphModel>
  </diagram>
</mxfile>
